<svg xmlns="http://www.w3.org/2000/svg" xmlns:xlink="http://www.w3.org/1999/xlink" width="500" zoomAndPan="magnify" viewBox="0 0 375 374.999991" height="500" preserveAspectRatio="xMidYMid meet" version="1.2"><g id="4a4660186e"><path style="fill:none;stroke-width:4;stroke-linecap:butt;stroke-linejoin:miter;stroke:#000000;stroke-opacity:1;stroke-miterlimit:4;" d="M 0.00224315 1.998528 L 160.002254 1.998528 " transform="matrix(0.75,0,0,0.75,167.689724,280.133917)"/><path style=" stroke:none;fill-rule:evenodd;fill:#fdb811;fill-opacity:1;" d="M 225.4375 113.089844 C 269.59375 113.089844 305.378906 148.9375 305.378906 193.175781 C 305.402344 237.40625 269.59375 273.269531 225.4375 273.246094 C 181.28125 273.246094 145.488281 237.402344 145.488281 193.175781 C 145.488281 148.957031 181.300781 113.089844 225.4375 113.089844 Z M 205.910156 44.886719 C 201.351562 44.886719 197.671875 48.582031 197.671875 53.160156 L 197.671875 60.109375 C 197.671875 64.691406 201.351562 68.359375 205.910156 68.359375 L 214.246094 68.359375 L 214.246094 75.816406 L 225.4375 81.511719 C 207.925781 81.511719 191.359375 85.5625 176.617188 92.757812 C 141.546875 110.402344 107.867188 97.253906 83.988281 121.15625 C 81.261719 123.863281 82.117188 126.359375 85.816406 126.425781 C 101.566406 126.742188 110.617188 130.375 115.484375 139.003906 C 118.972656 145.171875 116.074219 146.039062 108.429688 145.238281 C 73.382812 141.585938 66.058594 174.640625 31.277344 161.367188 C 27.375 159.878906 25.78125 162.105469 28.324219 167.734375 C 43.816406 202.097656 71.875 215.460938 98.441406 206.707031 C 120.929688 199.273438 124.835938 210.839844 114.832031 220.839844 C 109.222656 226.421875 93.121094 231.859375 79.121094 227.324219 C 74.414062 225.808594 73.535156 226.609375 75.023438 230.554688 C 85.441406 258.3125 107.761719 272.367188 140.078125 259.886719 C 147.703125 256.949219 150.179688 263.1875 144.589844 267.914062 L 133.398438 277.382812 C 130.570312 279.777344 131.957031 283.472656 136.191406 283.789062 C 172.5625 286.433594 185.082031 304.851562 225.4375 304.851562 C 287.007812 304.851562 336.917969 254.855469 336.917969 193.175781 C 336.917969 165.558594 326.902344 140.34375 310.335938 120.859375 L 314.117188 116.554688 C 319.21875 110.757812 318.3125 101.539062 311.949219 95.742188 C 305.566406 89.929688 296.203125 89.804688 291.097656 95.597656 L 287.085938 100.148438 C 272.367188 90.320312 255.148438 83.984375 236.628906 82.136719 L 236.628906 68.359375 L 244.957031 68.359375 C 249.535156 68.359375 253.195312 64.691406 253.195312 60.109375 L 253.195312 53.160156 C 253.195312 48.582031 249.535156 44.886719 244.957031 44.886719 Z M 205.910156 44.886719 "/><path style=" stroke:none;fill-rule:nonzero;fill:#fdb811;fill-opacity:1;" d="M 224.238281 124.363281 C 221.925781 124.40625 220.078125 126.300781 220.097656 128.625 L 220.097656 134.671875 C 220.097656 140.257812 228.5 140.257812 228.5 134.671875 L 228.5 128.625 C 228.546875 126.253906 226.609375 124.324219 224.238281 124.363281 Z M 224.238281 124.363281 "/><path style=" stroke:none;fill-rule:nonzero;fill:#fdb811;fill-opacity:1;" d="M 224.238281 247.4375 C 221.925781 247.460938 220.078125 249.367188 220.097656 251.679688 L 220.097656 257.726562 C 220.097656 263.332031 228.5 263.332031 228.5 257.726562 L 228.5 251.679688 C 228.546875 249.324219 226.609375 247.394531 224.238281 247.4375 Z M 224.238281 247.4375 "/><path style=" stroke:none;fill-rule:nonzero;fill:#fdb811;fill-opacity:1;" d="M 282.71875 188.976562 C 280.40625 188.976562 278.519531 190.847656 278.519531 193.175781 C 278.519531 195.511719 280.40625 197.375 282.71875 197.375 L 288.746094 197.375 C 291.054688 197.375 292.945312 195.511719 292.945312 193.175781 C 292.945312 190.851562 291.058594 188.976562 288.746094 188.976562 Z M 282.71875 188.976562 "/><path style=" stroke:none;fill-rule:nonzero;fill:#fdb811;fill-opacity:1;" d="M 159.835938 188.976562 C 157.527344 188.976562 155.636719 190.847656 155.636719 193.175781 C 155.636719 195.511719 157.527344 197.375 159.835938 197.375 L 165.882812 197.375 C 168.191406 197.375 170.085938 195.511719 170.085938 193.175781 C 170.085938 190.851562 168.191406 188.976562 165.882812 188.976562 Z M 159.835938 188.976562 "/><path style=" stroke:none;fill-rule:nonzero;fill:#fdb811;fill-opacity:1;" d="M 265.558594 230.316406 C 261.78125 230.316406 259.933594 234.898438 262.640625 237.523438 L 266.882812 241.765625 C 268.503906 243.503906 271.25 243.570312 272.929688 241.894531 C 274.609375 240.210938 274.550781 237.457031 272.808594 235.84375 L 268.566406 231.605469 C 267.773438 230.785156 266.691406 230.316406 265.558594 230.316406 Z M 265.558594 230.316406 "/><path style=" stroke:none;fill-rule:nonzero;fill:#fdb811;fill-opacity:1;" d="M 178.667969 143.308594 C 174.910156 143.285156 173.058594 147.878906 175.75 150.507812 L 180.007812 154.75 C 181.628906 156.492188 184.378906 156.558594 186.058594 154.875 C 187.738281 153.199219 187.679688 150.445312 185.9375 148.828125 L 181.695312 144.585938 C 180.894531 143.769531 179.804688 143.308594 178.667969 143.308594 Z M 178.667969 143.308594 "/><path style=" stroke:none;fill-rule:nonzero;fill:#fdb811;fill-opacity:1;" d="M 269.789062 143.308594 C 268.691406 143.328125 267.644531 143.792969 266.886719 144.585938 L 262.644531 148.828125 C 260.902344 150.445312 260.835938 153.199219 262.519531 154.875 C 264.195312 156.558594 266.949219 156.492188 268.566406 154.75 L 272.808594 150.507812 C 275.558594 147.84375 273.601562 143.175781 269.789062 143.308594 Z M 269.789062 143.308594 "/><path style=" stroke:none;fill-rule:nonzero;fill:#fdb811;fill-opacity:1;" d="M 182.910156 230.316406 C 181.820312 230.34375 180.773438 230.804688 180.007812 231.605469 L 175.75 235.84375 C 174.007812 237.457031 173.960938 240.210938 175.648438 241.894531 C 177.324219 243.570312 180.078125 243.503906 181.695312 241.765625 L 185.9375 237.523438 C 188.691406 234.859375 186.730469 230.195312 182.910156 230.316406 Z M 182.910156 230.316406 "/><path style=" stroke:none;fill-rule:evenodd;fill:#fdb811;fill-opacity:1;" d="M 225.4375 186.894531 C 228.941406 186.894531 231.714844 189.644531 231.714844 193.171875 C 231.714844 196.699219 228.941406 199.453125 225.4375 199.453125 C 221.925781 199.453125 219.160156 196.699219 219.160156 193.171875 C 219.15625 189.648438 221.925781 186.894531 225.4375 186.894531 Z M 253.761719 159.28125 C 252.691406 159.300781 251.644531 159.746094 250.886719 160.523438 L 231.546875 179.90625 C 229.679688 179.023438 227.621094 178.5 225.4375 178.5 C 217.390625 178.5 210.800781 185.132812 210.800781 193.175781 C 210.800781 201.21875 217.390625 207.859375 225.4375 207.859375 C 233.484375 207.859375 240.070312 201.226562 240.070312 193.175781 C 240.070312 190.347656 239.230469 187.71875 237.824219 185.472656 L 256.804688 166.445312 C 259.492188 163.777344 257.5625 159.203125 253.761719 159.28125 Z M 253.761719 159.28125 "/></g></svg>